solid OpenSCAD_Model
  facet normal -1 0 0
    outer loop
      vertex 0 40 60
      vertex 0 0 80
      vertex 0 40 80
    endloop
  endfacet
  facet normal -1 0 0
    outer loop
      vertex 0 10 60
      vertex 0 0 80
      vertex 0 40 60
    endloop
  endfacet
  facet normal -1 0 0
    outer loop
      vertex 0 0 0
      vertex 0 0 80
      vertex 0 10 60
    endloop
  endfacet
  facet normal -1 0 0
    outer loop
      vertex 0 0 0
      vertex 0 10 60
      vertex 0 10 20
    endloop
  endfacet
  facet normal -1 0 0
    outer loop
      vertex 0 0 0
      vertex 0 10 20
      vertex 0 40 0
    endloop
  endfacet
  facet normal -1 0 0
    outer loop
      vertex 0 40 20
      vertex 0 40 0
      vertex 0 10 20
    endloop
  endfacet
  facet normal 0 -1 0
    outer loop
      vertex 31.2361 0 24.1958
      vertex 0 0 0
      vertex 95 0 0
    endloop
  endfacet
  facet normal 0 -1 0
    outer loop
      vertex 65.2769 0 54.6131
      vertex 66.9311 0 54.4392
      vertex 95 0 80
    endloop
  endfacet
  facet normal 0 -1 0
    outer loop
      vertex 0 0 80
      vertex 0 0 0
      vertex 26.0874 0 27.1684
    endloop
  endfacet
  facet normal 0 -1 0
    outer loop
      vertex 32.6765 0 25.0274
      vertex 31.2361 0 24.1958
      vertex 95 0 0
    endloop
  endfacet
  facet normal 0 -1 0
    outer loop
      vertex 0 0 80
      vertex 26.0874 0 27.1684
      vertex 26.0874 0 28.8316
    endloop
  endfacet
  facet normal 0 -1 0
    outer loop
      vertex 33.6542 0 26.3731
      vertex 32.6765 0 25.0274
      vertex 95 0 0
    endloop
  endfacet
  facet normal 0 -1 0
    outer loop
      vertex 0 0 80
      vertex 26.0874 0 28.8316
      vertex 26.7639 0 30.3511
    endloop
  endfacet
  facet normal 0 -1 0
    outer loop
      vertex 34 0 28
      vertex 33.6542 0 26.3731
      vertex 95 0 0
    endloop
  endfacet
  facet normal 0 -1 0
    outer loop
      vertex 0 0 80
      vertex 26.7639 0 30.3511
      vertex 28 0 31.4641
    endloop
  endfacet
  facet normal 0 -1 0
    outer loop
      vertex 33.6542 0 29.6269
      vertex 34 0 28
      vertex 95 0 0
    endloop
  endfacet
  facet normal 0 -1 0
    outer loop
      vertex 0 0 80
      vertex 28 0 31.4641
      vertex 29.5819 0 31.9781
    endloop
  endfacet
  facet normal 0 -1 0
    outer loop
      vertex 29.5819 0 46.6569
      vertex 31.2361 0 31.8042
      vertex 95 0 0
    endloop
  endfacet
  facet normal 0 -1 0
    outer loop
      vertex 0 0 80
      vertex 29.5819 0 31.9781
      vertex 31.2361 0 31.8042
    endloop
  endfacet
  facet normal 0 -1 0
    outer loop
      vertex 31.2361 0 31.8042
      vertex 32.6765 0 30.9726
      vertex 95 0 0
    endloop
  endfacet
  facet normal 0 -1 0
    outer loop
      vertex 65.2769 0 24.0219
      vertex 63.695 0 24.5359
      vertex 95 0 0
    endloop
  endfacet
  facet normal 0 -1 0
    outer loop
      vertex 29.5819 0 24.0219
      vertex 0 0 0
      vertex 31.2361 0 24.1958
    endloop
  endfacet
  facet normal 0 -1 0
    outer loop
      vertex 28 0 24.5359
      vertex 0 0 0
      vertex 29.5819 0 24.0219
    endloop
  endfacet
  facet normal 0 -1 0
    outer loop
      vertex 26.7639 0 25.6489
      vertex 0 0 0
      vertex 28 0 24.5359
    endloop
  endfacet
  facet normal 0 -1 0
    outer loop
      vertex 26.0874 0 27.1684
      vertex 0 0 0
      vertex 26.7639 0 25.6489
    endloop
  endfacet
  facet normal 0 -1 0
    outer loop
      vertex 0 0 80
      vertex 31.2361 0 31.8042
      vertex 26.0874 0 49.8034
    endloop
  endfacet
  facet normal 0 -1 0
    outer loop
      vertex 31.2361 0 46.8308
      vertex 29.5819 0 46.6569
      vertex 95 0 0
    endloop
  endfacet
  facet normal 0 -1 0
    outer loop
      vertex 0 0 80
      vertex 26.0874 0 49.8034
      vertex 26.0874 0 51.4666
    endloop
  endfacet
  facet normal 0 -1 0
    outer loop
      vertex 32.6765 0 47.6624
      vertex 31.2361 0 46.8308
      vertex 95 0 0
    endloop
  endfacet
  facet normal 0 -1 0
    outer loop
      vertex 0 0 80
      vertex 26.0874 0 51.4666
      vertex 26.7639 0 52.9861
    endloop
  endfacet
  facet normal 0 -1 0
    outer loop
      vertex 63.695 0 24.5359
      vertex 32.6765 0 47.6624
      vertex 95 0 0
    endloop
  endfacet
  facet normal 0 -1 0
    outer loop
      vertex 0 0 80
      vertex 26.7639 0 52.9861
      vertex 28 0 54.0991
    endloop
  endfacet
  facet normal 0 -1 0
    outer loop
      vertex 61.7824 0 27.1684
      vertex 33.6542 0 52.2619
      vertex 34 0 50.635
    endloop
  endfacet
  facet normal 0 -1 0
    outer loop
      vertex 0 0 80
      vertex 28 0 54.0991
      vertex 29.5819 0 54.6131
    endloop
  endfacet
  facet normal 0 -1 0
    outer loop
      vertex 95 0 80
      vertex 0 0 80
      vertex 31.2361 0 54.4392
    endloop
  endfacet
  facet normal 0 -1 0
    outer loop
      vertex 62.4589 0 30.3511
      vertex 63.695 0 31.4641
      vertex 95 0 80
    endloop
  endfacet
  facet normal 0 -1 0
    outer loop
      vertex 95 0 80
      vertex 31.2361 0 54.4392
      vertex 32.6765 0 53.6076
    endloop
  endfacet
  facet normal 0 -1 0
    outer loop
      vertex 63.695 0 54.0991
      vertex 65.2769 0 54.6131
      vertex 95 0 80
    endloop
  endfacet
  facet normal 0 -1 0
    outer loop
      vertex 28 0 47.1709
      vertex 31.2361 0 31.8042
      vertex 29.5819 0 46.6569
    endloop
  endfacet
  facet normal 0 -1 0
    outer loop
      vertex 26.7639 0 48.2839
      vertex 31.2361 0 31.8042
      vertex 28 0 47.1709
    endloop
  endfacet
  facet normal 0 -1 0
    outer loop
      vertex 26.0874 0 49.8034
      vertex 31.2361 0 31.8042
      vertex 26.7639 0 48.2839
    endloop
  endfacet
  facet normal 0 -1 0
    outer loop
      vertex 62.4589 0 25.6489
      vertex 61.7824 0 27.1684
      vertex 34 0 50.635
    endloop
  endfacet
  facet normal 0 -1 0
    outer loop
      vertex 66.9311 0 24.1958
      vertex 65.2769 0 24.0219
      vertex 95 0 0
    endloop
  endfacet
  facet normal 0 -1 0
    outer loop
      vertex 62.4589 0 30.3511
      vertex 32.6765 0 53.6076
      vertex 61.7824 0 28.8316
    endloop
  endfacet
  facet normal 0 -1 0
    outer loop
      vertex 69.3492 0 29.6269
      vertex 69.695 0 28
      vertex 95 0 0
    endloop
  endfacet
  facet normal 0 -1 0
    outer loop
      vertex 61.7824 0 49.8034
      vertex 32.6765 0 53.6076
      vertex 62.4589 0 30.3511
    endloop
  endfacet
  facet normal 0 -1 0
    outer loop
      vertex 68.3715 0 25.0274
      vertex 66.9311 0 24.1958
      vertex 95 0 0
    endloop
  endfacet
  facet normal 0 -1 0
    outer loop
      vertex 69.3492 0 26.3731
      vertex 68.3715 0 25.0274
      vertex 95 0 0
    endloop
  endfacet
  facet normal 0 -1 0
    outer loop
      vertex 95 0 80
      vertex 63.695 0 31.4641
      vertex 65.2769 0 31.9781
    endloop
  endfacet
  facet normal 0 -1 0
    outer loop
      vertex 69.695 0 28
      vertex 69.3492 0 26.3731
      vertex 95 0 0
    endloop
  endfacet
  facet normal 0 -1 0
    outer loop
      vertex 95 0 80
      vertex 65.2769 0 31.9781
      vertex 66.9311 0 31.8042
    endloop
  endfacet
  facet normal 0 -1 0
    outer loop
      vertex 95 0 80
      vertex 68.3715 0 30.9726
      vertex 95 0 0
    endloop
  endfacet
  facet normal 0 -1 0
    outer loop
      vertex 95 0 80
      vertex 66.9311 0 31.8042
      vertex 68.3715 0 30.9726
    endloop
  endfacet
  facet normal 0 -1 0
    outer loop
      vertex 68.3715 0 30.9726
      vertex 69.3492 0 29.6269
      vertex 95 0 0
    endloop
  endfacet
  facet normal 0 -1 0
    outer loop
      vertex 33.6542 0 49.0081
      vertex 32.6765 0 47.6624
      vertex 63.695 0 24.5359
    endloop
  endfacet
  facet normal 0 -1 0
    outer loop
      vertex 62.4589 0 25.6489
      vertex 34 0 50.635
      vertex 33.6542 0 49.0081
    endloop
  endfacet
  facet normal 0 -1 0
    outer loop
      vertex 61.7824 0 27.1684
      vertex 32.6765 0 53.6076
      vertex 33.6542 0 52.2619
    endloop
  endfacet
  facet normal 0 -1 0
    outer loop
      vertex 33.6542 0 49.0081
      vertex 63.695 0 24.5359
      vertex 62.4589 0 25.6489
    endloop
  endfacet
  facet normal 0 -1 0
    outer loop
      vertex 62.4589 0 48.2839
      vertex 61.7824 0 49.8034
      vertex 62.4589 0 30.3511
    endloop
  endfacet
  facet normal 0 -1 0
    outer loop
      vertex 61.7824 0 51.4666
      vertex 32.6765 0 53.6076
      vertex 61.7824 0 49.8034
    endloop
  endfacet
  facet normal 0 -1 0
    outer loop
      vertex 69.3492 0 49.0081
      vertex 68.3715 0 47.6624
      vertex 62.4589 0 30.3511
    endloop
  endfacet
  facet normal 0 -1 0
    outer loop
      vertex 62.4589 0 52.9861
      vertex 32.6765 0 53.6076
      vertex 61.7824 0 51.4666
    endloop
  endfacet
  facet normal 0 -1 0
    outer loop
      vertex 63.695 0 54.0991
      vertex 32.6765 0 53.6076
      vertex 62.4589 0 52.9861
    endloop
  endfacet
  facet normal 0 -1 0
    outer loop
      vertex 95 0 80
      vertex 32.6765 0 53.6076
      vertex 63.695 0 54.0991
    endloop
  endfacet
  facet normal 0 -1 0
    outer loop
      vertex 66.9311 0 46.8308
      vertex 65.2769 0 46.6569
      vertex 62.4589 0 30.3511
    endloop
  endfacet
  facet normal 0 -1 0
    outer loop
      vertex 95 0 80
      vertex 66.9311 0 54.4392
      vertex 68.3715 0 53.6076
    endloop
  endfacet
  facet normal 0 -1 0
    outer loop
      vertex 95 0 80
      vertex 68.3715 0 53.6076
      vertex 69.3492 0 52.2619
    endloop
  endfacet
  facet normal 0 -1 0
    outer loop
      vertex 68.3715 0 47.6624
      vertex 66.9311 0 46.8308
      vertex 62.4589 0 30.3511
    endloop
  endfacet
  facet normal 0 -1 0
    outer loop
      vertex 95 0 80
      vertex 69.3492 0 52.2619
      vertex 69.695 0 50.635
    endloop
  endfacet
  facet normal 0 -1 0
    outer loop
      vertex 95 0 80
      vertex 69.3492 0 49.0081
      vertex 62.4589 0 30.3511
    endloop
  endfacet
  facet normal 0 -1 0
    outer loop
      vertex 95 0 80
      vertex 69.695 0 50.635
      vertex 69.3492 0 49.0081
    endloop
  endfacet
  facet normal 0 -1 0
    outer loop
      vertex 65.2769 0 46.6569
      vertex 63.695 0 47.1709
      vertex 62.4589 0 30.3511
    endloop
  endfacet
  facet normal 0 -1 0
    outer loop
      vertex 63.695 0 47.1709
      vertex 62.4589 0 48.2839
      vertex 62.4589 0 30.3511
    endloop
  endfacet
  facet normal 0 -1 0
    outer loop
      vertex 32.6765 0 30.9726
      vertex 33.6542 0 29.6269
      vertex 95 0 0
    endloop
  endfacet
  facet normal 0 -1 0
    outer loop
      vertex 29.5819 0 54.6131
      vertex 31.2361 0 54.4392
      vertex 0 0 80
    endloop
  endfacet
  facet normal 0 -1 0
    outer loop
      vertex 61.7824 0 27.1684
      vertex 61.7824 0 28.8316
      vertex 32.6765 0 53.6076
    endloop
  endfacet
  facet normal 0 0 -1
    outer loop
      vertex 20.2447 34.9861 0
      vertex 0 40 0
      vertex 95 40 0
    endloop
  endfacet
  facet normal 0 0 -1
    outer loop
      vertex 0 0 0
      vertex 0 40 0
      vertex 6.72945 27.1831 0
    endloop
  endfacet
  facet normal 0 0 -1
    outer loop
      vertex 8.50532 31.1717 0
      vertex 0 40 0
      vertex 11.75 34.0933 0
    endloop
  endfacet
  facet normal 0 0 -1
    outer loop
      vertex 0 0 0
      vertex 6.72945 27.1831 0
      vertex 6.72945 22.8169 0
    endloop
  endfacet
  facet normal 0 0 -1
    outer loop
      vertex 0 0 0
      vertex 6.72945 22.8169 0
      vertex 8.50532 18.8283 0
    endloop
  endfacet
  facet normal 0 0 -1
    outer loop
      vertex 0 0 0
      vertex 8.50532 18.8283 0
      vertex 11.75 15.9067 0
    endloop
  endfacet
  facet normal 0 0 -1
    outer loop
      vertex 0 0 0
      vertex 11.75 15.9067 0
      vertex 15.9025 14.5575 0
    endloop
  endfacet
  facet normal 0 0 -1
    outer loop
      vertex 0 0 0
      vertex 15.9025 14.5575 0
      vertex 95 0 0
    endloop
  endfacet
  facet normal 0 0 -1
    outer loop
      vertex 24.0259 17.197 0
      vertex 95 0 0
      vertex 20.2447 15.0139 0
    endloop
  endfacet
  facet normal 0 0 -1
    outer loop
      vertex 26.5922 20.7293 0
      vertex 95 0 0
      vertex 24.0259 17.197 0
    endloop
  endfacet
  facet normal 0 0 -1
    outer loop
      vertex 27.5 25 0
      vertex 95 0 0
      vertex 26.5922 20.7293 0
    endloop
  endfacet
  facet normal 0 0 -1
    outer loop
      vertex 68.9 25 0
      vertex 26.5922 29.2707 0
      vertex 73.65 33.2272 0
    endloop
  endfacet
  facet normal 0 0 -1
    outer loop
      vertex 26.5922 29.2707 0
      vertex 95 0 0
      vertex 27.5 25 0
    endloop
  endfacet
  facet normal 0 0 -1
    outer loop
      vertex 11.75 34.0933 0
      vertex 0 40 0
      vertex 15.9025 35.4425 0
    endloop
  endfacet
  facet normal 0 0 -1
    outer loop
      vertex 73.65 33.2272 0
      vertex 26.5922 29.2707 0
      vertex 95 40 0
    endloop
  endfacet
  facet normal 0 0 -1
    outer loop
      vertex 26.5922 29.2707 0
      vertex 24.0259 32.803 0
      vertex 95 40 0
    endloop
  endfacet
  facet normal 0 0 -1
    outer loop
      vertex 15.9025 35.4425 0
      vertex 0 40 0
      vertex 20.2447 34.9861 0
    endloop
  endfacet
  facet normal 0 0 -1
    outer loop
      vertex 24.0259 32.803 0
      vertex 20.2447 34.9861 0
      vertex 95 40 0
    endloop
  endfacet
  facet normal 0 0 -1
    outer loop
      vertex 6.72945 27.1831 0
      vertex 0 40 0
      vertex 8.50532 31.1717 0
    endloop
  endfacet
  facet normal 0 0 -1
    outer loop
      vertex 73.65 16.7728 0
      vertex 26.5922 29.2707 0
      vertex 68.9 25 0
    endloop
  endfacet
  facet normal 0 0 -1
    outer loop
      vertex 95 0 0
      vertex 26.5922 29.2707 0
      vertex 73.65 16.7728 0
    endloop
  endfacet
  facet normal 0 0 -1
    outer loop
      vertex 83.15 33.2272 0
      vertex 95 40 0
      vertex 87.9 25 0
    endloop
  endfacet
  facet normal 0 0 -1
    outer loop
      vertex 95 0 0
      vertex 83.15 16.7728 0
      vertex 87.9 25 0
    endloop
  endfacet
  facet normal 0 0 -1
    outer loop
      vertex 95 0 0
      vertex 87.9 25 0
      vertex 95 40 0
    endloop
  endfacet
  facet normal 0 0 -1
    outer loop
      vertex 83.15 16.7728 0
      vertex 95 0 0
      vertex 73.65 16.7728 0
    endloop
  endfacet
  facet normal 0 0 -1
    outer loop
      vertex 83.15 33.2272 0
      vertex 73.65 33.2272 0
      vertex 95 40 0
    endloop
  endfacet
  facet normal 0 0 -1
    outer loop
      vertex 20.2447 15.0139 0
      vertex 95 0 0
      vertex 15.9025 14.5575 0
    endloop
  endfacet
  facet normal 0 1 0
    outer loop
      vertex 0 40 0
      vertex 0 40 20
      vertex 95 40 0
    endloop
  endfacet
  facet normal 0 1 0
    outer loop
      vertex 95 40 0
      vertex 0 40 20
      vertex 95 40 20
    endloop
  endfacet
  facet normal 0 0 1
    outer loop
      vertex 20.2447 15.0139 20
      vertex 0 10 20
      vertex 95 10 20
    endloop
  endfacet
  facet normal 0 0 1
    outer loop
      vertex 24.0259 32.803 20
      vertex 26.5922 29.2707 20
      vertex 73.65 16.7728 20
    endloop
  endfacet
  facet normal 0 0 1
    outer loop
      vertex 15.9025 14.5575 20
      vertex 11.75 15.9067 20
      vertex 0 10 20
    endloop
  endfacet
  facet normal 0 0 1
    outer loop
      vertex 0 40 20
      vertex 0 10 20
      vertex 6.72945 22.8169 20
    endloop
  endfacet
  facet normal 0 0 1
    outer loop
      vertex 26.5922 20.7293 20
      vertex 24.0259 17.197 20
      vertex 95 10 20
    endloop
  endfacet
  facet normal 0 0 1
    outer loop
      vertex 0 40 20
      vertex 6.72945 22.8169 20
      vertex 6.72945 27.1831 20
    endloop
  endfacet
  facet normal 0 0 1
    outer loop
      vertex 27.5 25 20
      vertex 26.5922 20.7293 20
      vertex 95 10 20
    endloop
  endfacet
  facet normal 0 0 1
    outer loop
      vertex 0 40 20
      vertex 6.72945 27.1831 20
      vertex 8.50532 31.1717 20
    endloop
  endfacet
  facet normal 0 0 1
    outer loop
      vertex 0 40 20
      vertex 8.50532 31.1717 20
      vertex 11.75 34.0933 20
    endloop
  endfacet
  facet normal 0 0 1
    outer loop
      vertex 73.65 16.7728 20
      vertex 26.5922 29.2707 20
      vertex 95 10 20
    endloop
  endfacet
  facet normal 0 0 1
    outer loop
      vertex 95 40 20
      vertex 0 40 20
      vertex 15.9025 35.4425 20
    endloop
  endfacet
  facet normal 0 0 1
    outer loop
      vertex 95 40 20
      vertex 15.9025 35.4425 20
      vertex 20.2447 34.9861 20
    endloop
  endfacet
  facet normal 0 0 1
    outer loop
      vertex 73.65 16.7728 20
      vertex 20.2447 34.9861 20
      vertex 24.0259 32.803 20
    endloop
  endfacet
  facet normal 0 0 1
    outer loop
      vertex 24.0259 17.197 20
      vertex 20.2447 15.0139 20
      vertex 95 10 20
    endloop
  endfacet
  facet normal 0 0 1
    outer loop
      vertex 15.9025 14.5575 20
      vertex 0 10 20
      vertex 20.2447 15.0139 20
    endloop
  endfacet
  facet normal 0 0 1
    outer loop
      vertex 83.15 33.2272 20
      vertex 87.9 25 20
      vertex 95 40 20
    endloop
  endfacet
  facet normal 0 0 1
    outer loop
      vertex 8.50532 18.8283 20
      vertex 0 10 20
      vertex 11.75 15.9067 20
    endloop
  endfacet
  facet normal 0 0 1
    outer loop
      vertex 6.72945 22.8169 20
      vertex 0 10 20
      vertex 8.50532 18.8283 20
    endloop
  endfacet
  facet normal 0 0 1
    outer loop
      vertex 73.65 16.7728 20
      vertex 68.9 25 20
      vertex 20.2447 34.9861 20
    endloop
  endfacet
  facet normal 0 0 1
    outer loop
      vertex 73.65 33.2272 20
      vertex 20.2447 34.9861 20
      vertex 68.9 25 20
    endloop
  endfacet
  facet normal 0 0 1
    outer loop
      vertex 95 40 20
      vertex 20.2447 34.9861 20
      vertex 73.65 33.2272 20
    endloop
  endfacet
  facet normal 0 0 1
    outer loop
      vertex 87.9 25 20
      vertex 83.15 16.7728 20
      vertex 95 10 20
    endloop
  endfacet
  facet normal 0 0 1
    outer loop
      vertex 95 40 20
      vertex 73.65 33.2272 20
      vertex 83.15 33.2272 20
    endloop
  endfacet
  facet normal 0 0 1
    outer loop
      vertex 95 40 20
      vertex 87.9 25 20
      vertex 95 10 20
    endloop
  endfacet
  facet normal 0 0 1
    outer loop
      vertex 26.5922 29.2707 20
      vertex 27.5 25 20
      vertex 95 10 20
    endloop
  endfacet
  facet normal 0 0 1
    outer loop
      vertex 83.15 16.7728 20
      vertex 73.65 16.7728 20
      vertex 95 10 20
    endloop
  endfacet
  facet normal 0 0 1
    outer loop
      vertex 11.75 34.0933 20
      vertex 15.9025 35.4425 20
      vertex 0 40 20
    endloop
  endfacet
  facet normal 0 1 0
    outer loop
      vertex 31.2361 10 54.4392
      vertex 0 10 60
      vertex 95 10 60
    endloop
  endfacet
  facet normal 0 1 0
    outer loop
      vertex 0 10 20
      vertex 0 10 60
      vertex 26.0874 10 28.8316
    endloop
  endfacet
  facet normal 0 1 0
    outer loop
      vertex 0 10 20
      vertex 26.0874 10 28.8316
      vertex 26.0874 10 27.1684
    endloop
  endfacet
  facet normal 0 1 0
    outer loop
      vertex 0 10 20
      vertex 26.0874 10 27.1684
      vertex 26.7639 10 25.6489
    endloop
  endfacet
  facet normal 0 1 0
    outer loop
      vertex 0 10 20
      vertex 26.7639 10 25.6489
      vertex 28 10 24.5359
    endloop
  endfacet
  facet normal 0 1 0
    outer loop
      vertex 0 10 20
      vertex 28 10 24.5359
      vertex 29.5819 10 24.0219
    endloop
  endfacet
  facet normal 0 1 0
    outer loop
      vertex 0 10 20
      vertex 29.5819 10 24.0219
      vertex 95 10 20
    endloop
  endfacet
  facet normal 0 1 0
    outer loop
      vertex 29.5819 10 24.0219
      vertex 31.2361 10 24.1958
      vertex 95 10 20
    endloop
  endfacet
  facet normal 0 1 0
    outer loop
      vertex 33.6542 10 26.3731
      vertex 95 10 20
      vertex 32.6765 10 25.0274
    endloop
  endfacet
  facet normal 0 1 0
    outer loop
      vertex 34 10 28
      vertex 95 10 20
      vertex 33.6542 10 26.3731
    endloop
  endfacet
  facet normal 0 1 0
    outer loop
      vertex 26.7639 10 48.2839
      vertex 0 10 60
      vertex 26.0874 10 49.8034
    endloop
  endfacet
  facet normal 0 1 0
    outer loop
      vertex 31.2361 10 31.8042
      vertex 0 10 60
      vertex 32.6765 10 30.9726
    endloop
  endfacet
  facet normal 0 1 0
    outer loop
      vertex 29.5819 10 31.9781
      vertex 0 10 60
      vertex 31.2361 10 31.8042
    endloop
  endfacet
  facet normal 0 1 0
    outer loop
      vertex 63.695 10 24.5359
      vertex 33.6542 10 29.6269
      vertex 62.4589 10 25.6489
    endloop
  endfacet
  facet normal 0 1 0
    outer loop
      vertex 28 10 31.4641
      vertex 0 10 60
      vertex 29.5819 10 31.9781
    endloop
  endfacet
  facet normal 0 1 0
    outer loop
      vertex 26.7639 10 30.3511
      vertex 0 10 60
      vertex 28 10 31.4641
    endloop
  endfacet
  facet normal 0 1 0
    outer loop
      vertex 26.0874 10 28.8316
      vertex 0 10 60
      vertex 26.7639 10 30.3511
    endloop
  endfacet
  facet normal 0 1 0
    outer loop
      vertex 26.0874 10 49.8034
      vertex 0 10 60
      vertex 26.0874 10 51.4666
    endloop
  endfacet
  facet normal 0 1 0
    outer loop
      vertex 32.6765 10 30.9726
      vertex 0 10 60
      vertex 26.7639 10 48.2839
    endloop
  endfacet
  facet normal 0 1 0
    outer loop
      vertex 32.6765 10 30.9726
      vertex 26.7639 10 48.2839
      vertex 28 10 47.1709
    endloop
  endfacet
  facet normal 0 1 0
    outer loop
      vertex 65.2769 10 31.9781
      vertex 31.2361 10 46.8308
      vertex 66.9311 10 31.8042
    endloop
  endfacet
  facet normal 0 1 0
    outer loop
      vertex 66.9311 10 31.8042
      vertex 95 10 20
      vertex 68.3715 10 30.9726
    endloop
  endfacet
  facet normal 0 1 0
    outer loop
      vertex 66.9311 10 31.8042
      vertex 31.2361 10 46.8308
      vertex 95 10 20
    endloop
  endfacet
  facet normal 0 1 0
    outer loop
      vertex 33.6542 10 49.0081
      vertex 95 10 20
      vertex 32.6765 10 47.6624
    endloop
  endfacet
  facet normal 0 1 0
    outer loop
      vertex 32.6765 10 53.6076
      vertex 95 10 60
      vertex 33.6542 10 52.2619
    endloop
  endfacet
  facet normal 0 1 0
    outer loop
      vertex 65.2769 10 54.6131
      vertex 33.6542 10 49.0081
      vertex 95 10 60
    endloop
  endfacet
  facet normal 0 1 0
    outer loop
      vertex 33.6542 10 49.0081
      vertex 34 10 50.635
      vertex 95 10 60
    endloop
  endfacet
  facet normal 0 1 0
    outer loop
      vertex 34 10 50.635
      vertex 33.6542 10 52.2619
      vertex 95 10 60
    endloop
  endfacet
  facet normal 0 1 0
    outer loop
      vertex 62.4589 10 25.6489
      vertex 32.6765 10 30.9726
      vertex 61.7824 10 27.1684
    endloop
  endfacet
  facet normal 0 1 0
    outer loop
      vertex 28 10 54.0991
      vertex 0 10 60
      vertex 29.5819 10 54.6131
    endloop
  endfacet
  facet normal 0 1 0
    outer loop
      vertex 29.5819 10 54.6131
      vertex 0 10 60
      vertex 31.2361 10 54.4392
    endloop
  endfacet
  facet normal 0 1 0
    outer loop
      vertex 32.6765 10 53.6076
      vertex 31.2361 10 54.4392
      vertex 95 10 60
    endloop
  endfacet
  facet normal 0 1 0
    outer loop
      vertex 69.3492 10 26.3731
      vertex 95 10 20
      vertex 68.3715 10 25.0274
    endloop
  endfacet
  facet normal 0 1 0
    outer loop
      vertex 26.7639 10 52.9861
      vertex 0 10 60
      vertex 28 10 54.0991
    endloop
  endfacet
  facet normal 0 1 0
    outer loop
      vertex 26.0874 10 51.4666
      vertex 0 10 60
      vertex 26.7639 10 52.9861
    endloop
  endfacet
  facet normal 0 1 0
    outer loop
      vertex 32.6765 10 30.9726
      vertex 28 10 47.1709
      vertex 61.7824 10 28.8316
    endloop
  endfacet
  facet normal 0 1 0
    outer loop
      vertex 65.2769 10 31.9781
      vertex 28 10 47.1709
      vertex 29.5819 10 46.6569
    endloop
  endfacet
  facet normal 0 1 0
    outer loop
      vertex 32.6765 10 30.9726
      vertex 61.7824 10 28.8316
      vertex 61.7824 10 27.1684
    endloop
  endfacet
  facet normal 0 1 0
    outer loop
      vertex 33.6542 10 29.6269
      vertex 32.6765 10 30.9726
      vertex 62.4589 10 25.6489
    endloop
  endfacet
  facet normal 0 1 0
    outer loop
      vertex 63.695 10 31.4641
      vertex 28 10 47.1709
      vertex 65.2769 10 31.9781
    endloop
  endfacet
  facet normal 0 1 0
    outer loop
      vertex 34 10 28
      vertex 33.6542 10 29.6269
      vertex 63.695 10 24.5359
    endloop
  endfacet
  facet normal 0 1 0
    outer loop
      vertex 34 10 28
      vertex 63.695 10 24.5359
      vertex 65.2769 10 24.0219
    endloop
  endfacet
  facet normal 0 1 0
    outer loop
      vertex 34 10 28
      vertex 65.2769 10 24.0219
      vertex 95 10 20
    endloop
  endfacet
  facet normal 0 1 0
    outer loop
      vertex 66.9311 10 24.1958
      vertex 95 10 20
      vertex 65.2769 10 24.0219
    endloop
  endfacet
  facet normal 0 1 0
    outer loop
      vertex 68.3715 10 25.0274
      vertex 95 10 20
      vertex 66.9311 10 24.1958
    endloop
  endfacet
  facet normal 0 1 0
    outer loop
      vertex 69.695 10 28
      vertex 95 10 20
      vertex 69.3492 10 26.3731
    endloop
  endfacet
  facet normal 0 1 0
    outer loop
      vertex 61.7824 10 51.4666
      vertex 33.6542 10 49.0081
      vertex 62.4589 10 52.9861
    endloop
  endfacet
  facet normal 0 1 0
    outer loop
      vertex 68.3715 10 30.9726
      vertex 95 10 20
      vertex 69.3492 10 29.6269
    endloop
  endfacet
  facet normal 0 1 0
    outer loop
      vertex 62.4589 10 30.3511
      vertex 28 10 47.1709
      vertex 63.695 10 31.4641
    endloop
  endfacet
  facet normal 0 1 0
    outer loop
      vertex 69.695 10 28
      vertex 69.3492 10 29.6269
      vertex 95 10 20
    endloop
  endfacet
  facet normal 0 1 0
    outer loop
      vertex 65.2769 10 31.9781
      vertex 29.5819 10 46.6569
      vertex 31.2361 10 46.8308
    endloop
  endfacet
  facet normal 0 1 0
    outer loop
      vertex 32.6765 10 47.6624
      vertex 95 10 20
      vertex 31.2361 10 46.8308
    endloop
  endfacet
  facet normal 0 1 0
    outer loop
      vertex 61.7824 10 28.8316
      vertex 28 10 47.1709
      vertex 62.4589 10 30.3511
    endloop
  endfacet
  facet normal 0 1 0
    outer loop
      vertex 61.7824 10 49.8034
      vertex 33.6542 10 49.0081
      vertex 61.7824 10 51.4666
    endloop
  endfacet
  facet normal 0 1 0
    outer loop
      vertex 62.4589 10 48.2839
      vertex 33.6542 10 49.0081
      vertex 61.7824 10 49.8034
    endloop
  endfacet
  facet normal 0 1 0
    outer loop
      vertex 63.695 10 47.1709
      vertex 33.6542 10 49.0081
      vertex 62.4589 10 48.2839
    endloop
  endfacet
  facet normal 0 1 0
    outer loop
      vertex 95 10 20
      vertex 33.6542 10 49.0081
      vertex 63.695 10 47.1709
    endloop
  endfacet
  facet normal 0 1 0
    outer loop
      vertex 66.9311 10 46.8308
      vertex 95 10 20
      vertex 65.2769 10 46.6569
    endloop
  endfacet
  facet normal 0 1 0
    outer loop
      vertex 68.3715 10 53.6076
      vertex 95 10 60
      vertex 69.3492 10 52.2619
    endloop
  endfacet
  facet normal 0 1 0
    outer loop
      vertex 95 10 20
      vertex 66.9311 10 46.8308
      vertex 95 10 60
    endloop
  endfacet
  facet normal 0 1 0
    outer loop
      vertex 66.9311 10 46.8308
      vertex 68.3715 10 47.6624
      vertex 95 10 60
    endloop
  endfacet
  facet normal 0 1 0
    outer loop
      vertex 68.3715 10 47.6624
      vertex 69.3492 10 49.0081
      vertex 95 10 60
    endloop
  endfacet
  facet normal 0 1 0
    outer loop
      vertex 69.3492 10 49.0081
      vertex 69.695 10 50.635
      vertex 95 10 60
    endloop
  endfacet
  facet normal 0 1 0
    outer loop
      vertex 69.695 10 50.635
      vertex 69.3492 10 52.2619
      vertex 95 10 60
    endloop
  endfacet
  facet normal 0 1 0
    outer loop
      vertex 65.2769 10 46.6569
      vertex 95 10 20
      vertex 63.695 10 47.1709
    endloop
  endfacet
  facet normal 0 1 0
    outer loop
      vertex 62.4589 10 52.9861
      vertex 33.6542 10 49.0081
      vertex 63.695 10 54.0991
    endloop
  endfacet
  facet normal 0 1 0
    outer loop
      vertex 68.3715 10 53.6076
      vertex 66.9311 10 54.4392
      vertex 95 10 60
    endloop
  endfacet
  facet normal 0 1 0
    outer loop
      vertex 63.695 10 54.0991
      vertex 33.6542 10 49.0081
      vertex 65.2769 10 54.6131
    endloop
  endfacet
  facet normal 0 1 0
    outer loop
      vertex 66.9311 10 54.4392
      vertex 65.2769 10 54.6131
      vertex 95 10 60
    endloop
  endfacet
  facet normal 0 1 0
    outer loop
      vertex 32.6765 10 25.0274
      vertex 95 10 20
      vertex 31.2361 10 24.1958
    endloop
  endfacet
  facet normal 0 0 -1
    outer loop
      vertex 15.9025 14.5575 60
      vertex 95 10 60
      vertex 0 10 60
    endloop
  endfacet
  facet normal 0 0 -1
    outer loop
      vertex 73.65 16.7728 60
      vertex 95 10 60
      vertex 26.5922 29.2707 60
    endloop
  endfacet
  facet normal 0 0 -1
    outer loop
      vertex 0 40 60
      vertex 6.72945 22.8169 60
      vertex 0 10 60
    endloop
  endfacet
  facet normal 0 0 -1
    outer loop
      vertex 24.0259 32.803 60
      vertex 73.65 16.7728 60
      vertex 26.5922 29.2707 60
    endloop
  endfacet
  facet normal 0 0 -1
    outer loop
      vertex 6.72945 22.8169 60
      vertex 8.50532 18.8283 60
      vertex 0 10 60
    endloop
  endfacet
  facet normal 0 0 -1
    outer loop
      vertex 26.5922 20.7293 60
      vertex 95 10 60
      vertex 24.0259 17.197 60
    endloop
  endfacet
  facet normal 0 0 -1
    outer loop
      vertex 8.50532 18.8283 60
      vertex 11.75 15.9067 60
      vertex 0 10 60
    endloop
  endfacet
  facet normal 0 0 -1
    outer loop
      vertex 20.2447 15.0139 60
      vertex 95 10 60
      vertex 15.9025 14.5575 60
    endloop
  endfacet
  facet normal 0 0 -1
    outer loop
      vertex 11.75 15.9067 60
      vertex 15.9025 14.5575 60
      vertex 0 10 60
    endloop
  endfacet
  facet normal 0 0 -1
    outer loop
      vertex 27.5 25 60
      vertex 95 10 60
      vertex 26.5922 20.7293 60
    endloop
  endfacet
  facet normal 0 0 -1
    outer loop
      vertex 26.5922 29.2707 60
      vertex 95 10 60
      vertex 27.5 25 60
    endloop
  endfacet
  facet normal 0 0 -1
    outer loop
      vertex 83.15 16.7728 60
      vertex 95 10 60
      vertex 73.65 16.7728 60
    endloop
  endfacet
  facet normal 0 0 -1
    outer loop
      vertex 95 40 60
      vertex 24.0259 32.803 60
      vertex 20.2447 34.9861 60
    endloop
  endfacet
  facet normal 0 0 -1
    outer loop
      vertex 95 40 60
      vertex 20.2447 34.9861 60
      vertex 0 40 60
    endloop
  endfacet
  facet normal 0 0 -1
    outer loop
      vertex 20.2447 34.9861 60
      vertex 15.9025 35.4425 60
      vertex 0 40 60
    endloop
  endfacet
  facet normal 0 0 -1
    outer loop
      vertex 8.50532 31.1717 60
      vertex 0 40 60
      vertex 11.75 34.0933 60
    endloop
  endfacet
  facet normal 0 0 -1
    outer loop
      vertex 73.65 16.7728 60
      vertex 24.0259 32.803 60
      vertex 68.9 25 60
    endloop
  endfacet
  facet normal 0 0 -1
    outer loop
      vertex 0 40 60
      vertex 8.50532 31.1717 60
      vertex 6.72945 27.1831 60
    endloop
  endfacet
  facet normal 0 0 -1
    outer loop
      vertex 0 40 60
      vertex 6.72945 27.1831 60
      vertex 6.72945 22.8169 60
    endloop
  endfacet
  facet normal 0 0 -1
    outer loop
      vertex 83.15 33.2272 60
      vertex 95 40 60
      vertex 87.9 25 60
    endloop
  endfacet
  facet normal 0 0 -1
    outer loop
      vertex 11.75 34.0933 60
      vertex 0 40 60
      vertex 15.9025 35.4425 60
    endloop
  endfacet
  facet normal 0 0 -1
    outer loop
      vertex 87.9 25 60
      vertex 95 10 60
      vertex 83.15 16.7728 60
    endloop
  endfacet
  facet normal 0 0 -1
    outer loop
      vertex 95 40 60
      vertex 95 10 60
      vertex 87.9 25 60
    endloop
  endfacet
  facet normal 0 0 -1
    outer loop
      vertex 68.9 25 60
      vertex 24.0259 32.803 60
      vertex 73.65 33.2272 60
    endloop
  endfacet
  facet normal 0 0 -1
    outer loop
      vertex 95 40 60
      vertex 83.15 33.2272 60
      vertex 73.65 33.2272 60
    endloop
  endfacet
  facet normal 0 0 -1
    outer loop
      vertex 95 40 60
      vertex 73.65 33.2272 60
      vertex 24.0259 32.803 60
    endloop
  endfacet
  facet normal 0 0 -1
    outer loop
      vertex 24.0259 17.197 60
      vertex 95 10 60
      vertex 20.2447 15.0139 60
    endloop
  endfacet
  facet normal 0 1 0
    outer loop
      vertex 0 40 60
      vertex 0 40 80
      vertex 95 40 60
    endloop
  endfacet
  facet normal 0 1 0
    outer loop
      vertex 95 40 60
      vertex 0 40 80
      vertex 95 40 80
    endloop
  endfacet
  facet normal 0 0 1
    outer loop
      vertex 24.0259 17.197 80
      vertex 0 0 80
      vertex 95 0 80
    endloop
  endfacet
  facet normal 0 0 1
    outer loop
      vertex 24.0259 32.803 80
      vertex 26.5922 29.2707 80
      vertex 95 0 80
    endloop
  endfacet
  facet normal 0 0 1
    outer loop
      vertex 0 40 80
      vertex 0 0 80
      vertex 6.72945 22.8169 80
    endloop
  endfacet
  facet normal 0 0 1
    outer loop
      vertex 26.5922 20.7293 80
      vertex 24.0259 17.197 80
      vertex 95 0 80
    endloop
  endfacet
  facet normal 0 0 1
    outer loop
      vertex 0 40 80
      vertex 6.72945 22.8169 80
      vertex 6.72945 27.1831 80
    endloop
  endfacet
  facet normal 0 0 1
    outer loop
      vertex 83.15 33.2272 80
      vertex 87.9 25 80
      vertex 95 40 80
    endloop
  endfacet
  facet normal 0 0 1
    outer loop
      vertex 0 40 80
      vertex 6.72945 27.1831 80
      vertex 8.50532 31.1717 80
    endloop
  endfacet
  facet normal 0 0 1
    outer loop
      vertex 27.5 25 80
      vertex 26.5922 20.7293 80
      vertex 95 0 80
    endloop
  endfacet
  facet normal 0 0 1
    outer loop
      vertex 0 40 80
      vertex 8.50532 31.1717 80
      vertex 11.75 34.0933 80
    endloop
  endfacet
  facet normal 0 0 1
    outer loop
      vertex 26.5922 29.2707 80
      vertex 27.5 25 80
      vertex 95 0 80
    endloop
  endfacet
  facet normal 0 0 1
    outer loop
      vertex 95 40 80
      vertex 0 40 80
      vertex 15.9025 35.4425 80
    endloop
  endfacet
  facet normal 0 0 1
    outer loop
      vertex 73.65 16.7728 80
      vertex 20.2447 34.9861 80
      vertex 95 0 80
    endloop
  endfacet
  facet normal 0 0 1
    outer loop
      vertex 95 40 80
      vertex 15.9025 35.4425 80
      vertex 20.2447 34.9861 80
    endloop
  endfacet
  facet normal 0 0 1
    outer loop
      vertex 20.2447 34.9861 80
      vertex 24.0259 32.803 80
      vertex 95 0 80
    endloop
  endfacet
  facet normal 0 0 1
    outer loop
      vertex 20.2447 15.0139 80
      vertex 0 0 80
      vertex 24.0259 17.197 80
    endloop
  endfacet
  facet normal 0 0 1
    outer loop
      vertex 15.9025 14.5575 80
      vertex 0 0 80
      vertex 20.2447 15.0139 80
    endloop
  endfacet
  facet normal 0 0 1
    outer loop
      vertex 11.75 15.9067 80
      vertex 0 0 80
      vertex 15.9025 14.5575 80
    endloop
  endfacet
  facet normal 0 0 1
    outer loop
      vertex 8.50532 18.8283 80
      vertex 0 0 80
      vertex 11.75 15.9067 80
    endloop
  endfacet
  facet normal 0 0 1
    outer loop
      vertex 6.72945 22.8169 80
      vertex 0 0 80
      vertex 8.50532 18.8283 80
    endloop
  endfacet
  facet normal 0 0 1
    outer loop
      vertex 83.15 16.7728 80
      vertex 73.65 16.7728 80
      vertex 95 0 80
    endloop
  endfacet
  facet normal 0 0 1
    outer loop
      vertex 68.9 25 80
      vertex 20.2447 34.9861 80
      vertex 73.65 16.7728 80
    endloop
  endfacet
  facet normal 0 0 1
    outer loop
      vertex 73.65 33.2272 80
      vertex 20.2447 34.9861 80
      vertex 68.9 25 80
    endloop
  endfacet
  facet normal 0 0 1
    outer loop
      vertex 95 40 80
      vertex 20.2447 34.9861 80
      vertex 73.65 33.2272 80
    endloop
  endfacet
  facet normal 0 0 1
    outer loop
      vertex 95 40 80
      vertex 73.65 33.2272 80
      vertex 83.15 33.2272 80
    endloop
  endfacet
  facet normal 0 0 1
    outer loop
      vertex 95 40 80
      vertex 87.9 25 80
      vertex 95 0 80
    endloop
  endfacet
  facet normal 0 0 1
    outer loop
      vertex 87.9 25 80
      vertex 83.15 16.7728 80
      vertex 95 0 80
    endloop
  endfacet
  facet normal 0 0 1
    outer loop
      vertex 11.75 34.0933 80
      vertex 15.9025 35.4425 80
      vertex 0 40 80
    endloop
  endfacet
  facet normal 1 0 0
    outer loop
      vertex 95 10 20
      vertex 95 0 0
      vertex 95 40 0
    endloop
  endfacet
  facet normal 1 0 0
    outer loop
      vertex 95 10 60
      vertex 95 0 80
      vertex 95 10 20
    endloop
  endfacet
  facet normal 1 0 0
    outer loop
      vertex 95 0 80
      vertex 95 0 0
      vertex 95 10 20
    endloop
  endfacet
  facet normal 1 0 0
    outer loop
      vertex 95 10 60
      vertex 95 40 60
      vertex 95 0 80
    endloop
  endfacet
  facet normal 1 0 0
    outer loop
      vertex 95 40 80
      vertex 95 0 80
      vertex 95 40 60
    endloop
  endfacet
  facet normal 1 0 0
    outer loop
      vertex 95 40 20
      vertex 95 10 20
      vertex 95 40 0
    endloop
  endfacet
  facet normal 0.913546 -9.03136e-17 0.406736
    outer loop
      vertex 26.7639 0 25.6489
      vertex 26.7639 10 25.6489
      vertex 26.0874 10 27.1684
    endloop
  endfacet
  facet normal 0.913546 -9.03136e-17 0.406736
    outer loop
      vertex 26.0874 0 27.1684
      vertex 26.7639 0 25.6489
      vertex 26.0874 10 27.1684
    endloop
  endfacet
  facet normal 1 0 0
    outer loop
      vertex 26.0874 10 27.1684
      vertex 26.0874 10 28.8316
      vertex 26.0874 0 28.8316
    endloop
  endfacet
  facet normal 1 0 0
    outer loop
      vertex 26.0874 0 27.1684
      vertex 26.0874 10 27.1684
      vertex 26.0874 0 28.8316
    endloop
  endfacet
  facet normal 0.669131 -1.65011e-16 0.743145
    outer loop
      vertex 28 0 24.5359
      vertex 28 10 24.5359
      vertex 26.7639 10 25.6489
    endloop
  endfacet
  facet normal 0.669131 -1.65011e-16 0.743145
    outer loop
      vertex 26.7639 0 25.6489
      vertex 28 0 24.5359
      vertex 26.7639 10 25.6489
    endloop
  endfacet
  facet normal 0.309017 -2.11177e-16 0.951057
    outer loop
      vertex 29.5819 0 24.0219
      vertex 29.5819 10 24.0219
      vertex 28 10 24.5359
    endloop
  endfacet
  facet normal 0.309017 -2.11177e-16 0.951057
    outer loop
      vertex 28 0 24.5359
      vertex 29.5819 0 24.0219
      vertex 28 10 24.5359
    endloop
  endfacet
  facet normal -0.104529 -2.20828e-16 0.994522
    outer loop
      vertex 31.2361 0 24.1958
      vertex 31.2361 10 24.1958
      vertex 29.5819 10 24.0219
    endloop
  endfacet
  facet normal -0.104529 -2.20828e-16 0.994522
    outer loop
      vertex 29.5819 0 24.0219
      vertex 31.2361 0 24.1958
      vertex 29.5819 10 24.0219
    endloop
  endfacet
  facet normal -0.5 -1.92296e-16 0.866025
    outer loop
      vertex 32.6765 0 25.0274
      vertex 32.6765 10 25.0274
      vertex 31.2361 10 24.1958
    endloop
  endfacet
  facet normal -0.5 -1.92296e-16 0.866025
    outer loop
      vertex 31.2361 0 24.1958
      vertex 32.6765 0 25.0274
      vertex 31.2361 10 24.1958
    endloop
  endfacet
  facet normal -0.809017 -1.30515e-16 0.587786
    outer loop
      vertex 33.6542 10 26.3731
      vertex 32.6765 10 25.0274
      vertex 33.6542 0 26.3731
    endloop
  endfacet
  facet normal -0.809017 -1.30515e-16 0.587786
    outer loop
      vertex 33.6542 0 26.3731
      vertex 32.6765 10 25.0274
      vertex 32.6765 0 25.0274
    endloop
  endfacet
  facet normal -0.978148 -4.61656e-17 0.207912
    outer loop
      vertex 34 10 28
      vertex 33.6542 10 26.3731
      vertex 34 0 28
    endloop
  endfacet
  facet normal -0.978148 -4.61656e-17 0.207912
    outer loop
      vertex 34 0 28
      vertex 33.6542 10 26.3731
      vertex 33.6542 0 26.3731
    endloop
  endfacet
  facet normal -0.978148 4.61656e-17 -0.207912
    outer loop
      vertex 34 10 28
      vertex 34 0 28
      vertex 33.6542 10 29.6269
    endloop
  endfacet
  facet normal -0.978148 4.61656e-17 -0.207912
    outer loop
      vertex 33.6542 10 29.6269
      vertex 34 0 28
      vertex 33.6542 0 29.6269
    endloop
  endfacet
  facet normal -0.809017 1.30515e-16 -0.587786
    outer loop
      vertex 33.6542 10 29.6269
      vertex 33.6542 0 29.6269
      vertex 32.6765 10 30.9726
    endloop
  endfacet
  facet normal -0.809017 1.30515e-16 -0.587786
    outer loop
      vertex 32.6765 10 30.9726
      vertex 33.6542 0 29.6269
      vertex 32.6765 0 30.9726
    endloop
  endfacet
  facet normal -0.5 1.92296e-16 -0.866025
    outer loop
      vertex 32.6765 10 30.9726
      vertex 32.6765 0 30.9726
      vertex 31.2361 10 31.8042
    endloop
  endfacet
  facet normal -0.5 1.92296e-16 -0.866025
    outer loop
      vertex 31.2361 10 31.8042
      vertex 32.6765 0 30.9726
      vertex 31.2361 0 31.8042
    endloop
  endfacet
  facet normal -0.104529 2.20828e-16 -0.994522
    outer loop
      vertex 31.2361 10 31.8042
      vertex 31.2361 0 31.8042
      vertex 29.5819 10 31.9781
    endloop
  endfacet
  facet normal -0.104529 2.20828e-16 -0.994522
    outer loop
      vertex 29.5819 10 31.9781
      vertex 31.2361 0 31.8042
      vertex 29.5819 0 31.9781
    endloop
  endfacet
  facet normal 0.309017 2.11177e-16 -0.951057
    outer loop
      vertex 29.5819 10 31.9781
      vertex 29.5819 0 31.9781
      vertex 28 10 31.4641
    endloop
  endfacet
  facet normal 0.309017 2.11177e-16 -0.951057
    outer loop
      vertex 28 10 31.4641
      vertex 29.5819 0 31.9781
      vertex 28 0 31.4641
    endloop
  endfacet
  facet normal 0.669131 1.65011e-16 -0.743145
    outer loop
      vertex 28 10 31.4641
      vertex 28 0 31.4641
      vertex 26.7639 10 30.3511
    endloop
  endfacet
  facet normal 0.669131 1.65011e-16 -0.743145
    outer loop
      vertex 26.7639 10 30.3511
      vertex 28 0 31.4641
      vertex 26.7639 0 30.3511
    endloop
  endfacet
  facet normal 0.913546 9.03136e-17 -0.406736
    outer loop
      vertex 26.0874 10 28.8316
      vertex 26.7639 10 30.3511
      vertex 26.7639 0 30.3511
    endloop
  endfacet
  facet normal 0.913546 9.03136e-17 -0.406736
    outer loop
      vertex 26.0874 0 28.8316
      vertex 26.0874 10 28.8316
      vertex 26.7639 0 30.3511
    endloop
  endfacet
  facet normal 0.913546 -9.03136e-17 0.406736
    outer loop
      vertex 26.7639 0 48.2839
      vertex 26.7639 10 48.2839
      vertex 26.0874 10 49.8034
    endloop
  endfacet
  facet normal 0.913546 -9.03136e-17 0.406736
    outer loop
      vertex 26.0874 0 49.8034
      vertex 26.7639 0 48.2839
      vertex 26.0874 10 49.8034
    endloop
  endfacet
  facet normal 1 0 0
    outer loop
      vertex 26.0874 10 49.8034
      vertex 26.0874 10 51.4666
      vertex 26.0874 0 51.4666
    endloop
  endfacet
  facet normal 1 0 0
    outer loop
      vertex 26.0874 0 49.8034
      vertex 26.0874 10 49.8034
      vertex 26.0874 0 51.4666
    endloop
  endfacet
  facet normal 0.669131 -1.65011e-16 0.743145
    outer loop
      vertex 28 0 47.1709
      vertex 28 10 47.1709
      vertex 26.7639 10 48.2839
    endloop
  endfacet
  facet normal 0.669131 -1.65011e-16 0.743145
    outer loop
      vertex 26.7639 0 48.2839
      vertex 28 0 47.1709
      vertex 26.7639 10 48.2839
    endloop
  endfacet
  facet normal 0.309017 -2.11177e-16 0.951057
    outer loop
      vertex 29.5819 0 46.6569
      vertex 29.5819 10 46.6569
      vertex 28 10 47.1709
    endloop
  endfacet
  facet normal 0.309017 -2.11177e-16 0.951057
    outer loop
      vertex 28 0 47.1709
      vertex 29.5819 0 46.6569
      vertex 28 10 47.1709
    endloop
  endfacet
  facet normal -0.104529 -2.20828e-16 0.994522
    outer loop
      vertex 31.2361 0 46.8308
      vertex 31.2361 10 46.8308
      vertex 29.5819 10 46.6569
    endloop
  endfacet
  facet normal -0.104529 -2.20828e-16 0.994522
    outer loop
      vertex 29.5819 0 46.6569
      vertex 31.2361 0 46.8308
      vertex 29.5819 10 46.6569
    endloop
  endfacet
  facet normal -0.5 -1.92296e-16 0.866025
    outer loop
      vertex 32.6765 0 47.6624
      vertex 32.6765 10 47.6624
      vertex 31.2361 10 46.8308
    endloop
  endfacet
  facet normal -0.5 -1.92296e-16 0.866025
    outer loop
      vertex 31.2361 0 46.8308
      vertex 32.6765 0 47.6624
      vertex 31.2361 10 46.8308
    endloop
  endfacet
  facet normal -0.809017 -1.30515e-16 0.587786
    outer loop
      vertex 33.6542 10 49.0081
      vertex 32.6765 10 47.6624
      vertex 33.6542 0 49.0081
    endloop
  endfacet
  facet normal -0.809017 -1.30515e-16 0.587786
    outer loop
      vertex 33.6542 0 49.0081
      vertex 32.6765 10 47.6624
      vertex 32.6765 0 47.6624
    endloop
  endfacet
  facet normal -0.978148 -4.61656e-17 0.207912
    outer loop
      vertex 34 10 50.635
      vertex 33.6542 10 49.0081
      vertex 34 0 50.635
    endloop
  endfacet
  facet normal -0.978148 -4.61656e-17 0.207912
    outer loop
      vertex 34 0 50.635
      vertex 33.6542 10 49.0081
      vertex 33.6542 0 49.0081
    endloop
  endfacet
  facet normal -0.978148 4.61656e-17 -0.207912
    outer loop
      vertex 34 10 50.635
      vertex 34 0 50.635
      vertex 33.6542 10 52.2619
    endloop
  endfacet
  facet normal -0.978148 4.61656e-17 -0.207912
    outer loop
      vertex 33.6542 10 52.2619
      vertex 34 0 50.635
      vertex 33.6542 0 52.2619
    endloop
  endfacet
  facet normal -0.809017 1.30515e-16 -0.587786
    outer loop
      vertex 33.6542 10 52.2619
      vertex 33.6542 0 52.2619
      vertex 32.6765 10 53.6076
    endloop
  endfacet
  facet normal -0.809017 1.30515e-16 -0.587786
    outer loop
      vertex 32.6765 10 53.6076
      vertex 33.6542 0 52.2619
      vertex 32.6765 0 53.6076
    endloop
  endfacet
  facet normal -0.5 1.92296e-16 -0.866025
    outer loop
      vertex 32.6765 10 53.6076
      vertex 32.6765 0 53.6076
      vertex 31.2361 10 54.4392
    endloop
  endfacet
  facet normal -0.5 1.92296e-16 -0.866025
    outer loop
      vertex 31.2361 10 54.4392
      vertex 32.6765 0 53.6076
      vertex 31.2361 0 54.4392
    endloop
  endfacet
  facet normal -0.104529 2.20828e-16 -0.994522
    outer loop
      vertex 31.2361 10 54.4392
      vertex 31.2361 0 54.4392
      vertex 29.5819 10 54.6131
    endloop
  endfacet
  facet normal -0.104529 2.20828e-16 -0.994522
    outer loop
      vertex 29.5819 10 54.6131
      vertex 31.2361 0 54.4392
      vertex 29.5819 0 54.6131
    endloop
  endfacet
  facet normal 0.309017 2.11177e-16 -0.951057
    outer loop
      vertex 29.5819 10 54.6131
      vertex 29.5819 0 54.6131
      vertex 28 10 54.0991
    endloop
  endfacet
  facet normal 0.309017 2.11177e-16 -0.951057
    outer loop
      vertex 28 10 54.0991
      vertex 29.5819 0 54.6131
      vertex 28 0 54.0991
    endloop
  endfacet
  facet normal 0.669131 1.65011e-16 -0.743145
    outer loop
      vertex 28 10 54.0991
      vertex 28 0 54.0991
      vertex 26.7639 10 52.9861
    endloop
  endfacet
  facet normal 0.669131 1.65011e-16 -0.743145
    outer loop
      vertex 26.7639 10 52.9861
      vertex 28 0 54.0991
      vertex 26.7639 0 52.9861
    endloop
  endfacet
  facet normal 0.913546 9.03136e-17 -0.406736
    outer loop
      vertex 26.0874 10 51.4666
      vertex 26.7639 10 52.9861
      vertex 26.7639 0 52.9861
    endloop
  endfacet
  facet normal 0.913546 9.03136e-17 -0.406736
    outer loop
      vertex 26.0874 0 51.4666
      vertex 26.0874 10 51.4666
      vertex 26.7639 0 52.9861
    endloop
  endfacet
  facet normal 1 0 0
    outer loop
      vertex 61.7824 10 27.1684
      vertex 61.7824 10 28.8316
      vertex 61.7824 0 28.8316
    endloop
  endfacet
  facet normal 1 0 0
    outer loop
      vertex 61.7824 0 27.1684
      vertex 61.7824 10 27.1684
      vertex 61.7824 0 28.8316
    endloop
  endfacet
  facet normal 0.913546 -9.03136e-17 0.406736
    outer loop
      vertex 62.4589 0 25.6489
      vertex 62.4589 10 25.6489
      vertex 61.7824 10 27.1684
    endloop
  endfacet
  facet normal 0.913546 -9.03136e-17 0.406736
    outer loop
      vertex 61.7824 0 27.1684
      vertex 62.4589 0 25.6489
      vertex 61.7824 10 27.1684
    endloop
  endfacet
  facet normal 0.669131 -1.65011e-16 0.743145
    outer loop
      vertex 63.695 0 24.5359
      vertex 63.695 10 24.5359
      vertex 62.4589 10 25.6489
    endloop
  endfacet
  facet normal 0.669131 -1.65011e-16 0.743145
    outer loop
      vertex 62.4589 0 25.6489
      vertex 63.695 0 24.5359
      vertex 62.4589 10 25.6489
    endloop
  endfacet
  facet normal 0.309017 -2.11177e-16 0.951057
    outer loop
      vertex 65.2769 0 24.0219
      vertex 65.2769 10 24.0219
      vertex 63.695 10 24.5359
    endloop
  endfacet
  facet normal 0.309017 -2.11177e-16 0.951057
    outer loop
      vertex 63.695 0 24.5359
      vertex 65.2769 0 24.0219
      vertex 63.695 10 24.5359
    endloop
  endfacet
  facet normal -0.104529 -2.20828e-16 0.994522
    outer loop
      vertex 66.9311 0 24.1958
      vertex 66.9311 10 24.1958
      vertex 65.2769 10 24.0219
    endloop
  endfacet
  facet normal -0.104529 -2.20828e-16 0.994522
    outer loop
      vertex 65.2769 0 24.0219
      vertex 66.9311 0 24.1958
      vertex 65.2769 10 24.0219
    endloop
  endfacet
  facet normal -0.5 -1.92296e-16 0.866025
    outer loop
      vertex 68.3715 0 25.0274
      vertex 68.3715 10 25.0274
      vertex 66.9311 10 24.1958
    endloop
  endfacet
  facet normal -0.5 -1.92296e-16 0.866025
    outer loop
      vertex 66.9311 0 24.1958
      vertex 68.3715 0 25.0274
      vertex 66.9311 10 24.1958
    endloop
  endfacet
  facet normal -0.809017 -1.30515e-16 0.587786
    outer loop
      vertex 69.3492 10 26.3731
      vertex 68.3715 10 25.0274
      vertex 69.3492 0 26.3731
    endloop
  endfacet
  facet normal -0.809017 -1.30515e-16 0.587786
    outer loop
      vertex 69.3492 0 26.3731
      vertex 68.3715 10 25.0274
      vertex 68.3715 0 25.0274
    endloop
  endfacet
  facet normal -0.978148 -4.61656e-17 0.207912
    outer loop
      vertex 69.695 10 28
      vertex 69.3492 10 26.3731
      vertex 69.695 0 28
    endloop
  endfacet
  facet normal -0.978148 -4.61656e-17 0.207912
    outer loop
      vertex 69.695 0 28
      vertex 69.3492 10 26.3731
      vertex 69.3492 0 26.3731
    endloop
  endfacet
  facet normal -0.978148 4.61656e-17 -0.207912
    outer loop
      vertex 69.695 10 28
      vertex 69.695 0 28
      vertex 69.3492 10 29.6269
    endloop
  endfacet
  facet normal -0.978148 4.61656e-17 -0.207912
    outer loop
      vertex 69.3492 10 29.6269
      vertex 69.695 0 28
      vertex 69.3492 0 29.6269
    endloop
  endfacet
  facet normal -0.809017 1.30515e-16 -0.587786
    outer loop
      vertex 69.3492 10 29.6269
      vertex 69.3492 0 29.6269
      vertex 68.3715 10 30.9726
    endloop
  endfacet
  facet normal -0.809017 1.30515e-16 -0.587786
    outer loop
      vertex 68.3715 10 30.9726
      vertex 69.3492 0 29.6269
      vertex 68.3715 0 30.9726
    endloop
  endfacet
  facet normal -0.5 1.92296e-16 -0.866025
    outer loop
      vertex 68.3715 10 30.9726
      vertex 68.3715 0 30.9726
      vertex 66.9311 10 31.8042
    endloop
  endfacet
  facet normal -0.5 1.92296e-16 -0.866025
    outer loop
      vertex 66.9311 10 31.8042
      vertex 68.3715 0 30.9726
      vertex 66.9311 0 31.8042
    endloop
  endfacet
  facet normal -0.104529 2.20828e-16 -0.994522
    outer loop
      vertex 66.9311 10 31.8042
      vertex 66.9311 0 31.8042
      vertex 65.2769 10 31.9781
    endloop
  endfacet
  facet normal -0.104529 2.20828e-16 -0.994522
    outer loop
      vertex 65.2769 10 31.9781
      vertex 66.9311 0 31.8042
      vertex 65.2769 0 31.9781
    endloop
  endfacet
  facet normal 0.309017 2.11177e-16 -0.951057
    outer loop
      vertex 65.2769 10 31.9781
      vertex 65.2769 0 31.9781
      vertex 63.695 10 31.4641
    endloop
  endfacet
  facet normal 0.309017 2.11177e-16 -0.951057
    outer loop
      vertex 63.695 10 31.4641
      vertex 65.2769 0 31.9781
      vertex 63.695 0 31.4641
    endloop
  endfacet
  facet normal 0.669131 1.65011e-16 -0.743145
    outer loop
      vertex 63.695 10 31.4641
      vertex 63.695 0 31.4641
      vertex 62.4589 10 30.3511
    endloop
  endfacet
  facet normal 0.669131 1.65011e-16 -0.743145
    outer loop
      vertex 62.4589 10 30.3511
      vertex 63.695 0 31.4641
      vertex 62.4589 0 30.3511
    endloop
  endfacet
  facet normal 0.913546 9.03136e-17 -0.406736
    outer loop
      vertex 61.7824 10 28.8316
      vertex 62.4589 10 30.3511
      vertex 62.4589 0 30.3511
    endloop
  endfacet
  facet normal 0.913546 9.03136e-17 -0.406736
    outer loop
      vertex 61.7824 0 28.8316
      vertex 61.7824 10 28.8316
      vertex 62.4589 0 30.3511
    endloop
  endfacet
  facet normal 0.913546 -9.03136e-17 0.406736
    outer loop
      vertex 62.4589 0 48.2839
      vertex 62.4589 10 48.2839
      vertex 61.7824 10 49.8034
    endloop
  endfacet
  facet normal 0.913546 -9.03136e-17 0.406736
    outer loop
      vertex 61.7824 0 49.8034
      vertex 62.4589 0 48.2839
      vertex 61.7824 10 49.8034
    endloop
  endfacet
  facet normal 1 0 0
    outer loop
      vertex 61.7824 10 49.8034
      vertex 61.7824 10 51.4666
      vertex 61.7824 0 51.4666
    endloop
  endfacet
  facet normal 1 0 0
    outer loop
      vertex 61.7824 0 49.8034
      vertex 61.7824 10 49.8034
      vertex 61.7824 0 51.4666
    endloop
  endfacet
  facet normal 0.669131 -1.65011e-16 0.743145
    outer loop
      vertex 63.695 0 47.1709
      vertex 63.695 10 47.1709
      vertex 62.4589 10 48.2839
    endloop
  endfacet
  facet normal 0.669131 -1.65011e-16 0.743145
    outer loop
      vertex 62.4589 0 48.2839
      vertex 63.695 0 47.1709
      vertex 62.4589 10 48.2839
    endloop
  endfacet
  facet normal 0.309017 -2.11177e-16 0.951057
    outer loop
      vertex 65.2769 0 46.6569
      vertex 65.2769 10 46.6569
      vertex 63.695 10 47.1709
    endloop
  endfacet
  facet normal 0.309017 -2.11177e-16 0.951057
    outer loop
      vertex 63.695 0 47.1709
      vertex 65.2769 0 46.6569
      vertex 63.695 10 47.1709
    endloop
  endfacet
  facet normal -0.104529 -2.20828e-16 0.994522
    outer loop
      vertex 66.9311 0 46.8308
      vertex 66.9311 10 46.8308
      vertex 65.2769 10 46.6569
    endloop
  endfacet
  facet normal -0.104529 -2.20828e-16 0.994522
    outer loop
      vertex 65.2769 0 46.6569
      vertex 66.9311 0 46.8308
      vertex 65.2769 10 46.6569
    endloop
  endfacet
  facet normal -0.5 -1.92296e-16 0.866025
    outer loop
      vertex 68.3715 0 47.6624
      vertex 68.3715 10 47.6624
      vertex 66.9311 10 46.8308
    endloop
  endfacet
  facet normal -0.5 -1.92296e-16 0.866025
    outer loop
      vertex 66.9311 0 46.8308
      vertex 68.3715 0 47.6624
      vertex 66.9311 10 46.8308
    endloop
  endfacet
  facet normal -0.809017 -1.30515e-16 0.587786
    outer loop
      vertex 69.3492 10 49.0081
      vertex 68.3715 10 47.6624
      vertex 69.3492 0 49.0081
    endloop
  endfacet
  facet normal -0.809017 -1.30515e-16 0.587786
    outer loop
      vertex 69.3492 0 49.0081
      vertex 68.3715 10 47.6624
      vertex 68.3715 0 47.6624
    endloop
  endfacet
  facet normal -0.978148 -4.61656e-17 0.207912
    outer loop
      vertex 69.695 10 50.635
      vertex 69.3492 10 49.0081
      vertex 69.695 0 50.635
    endloop
  endfacet
  facet normal -0.978148 -4.61656e-17 0.207912
    outer loop
      vertex 69.695 0 50.635
      vertex 69.3492 10 49.0081
      vertex 69.3492 0 49.0081
    endloop
  endfacet
  facet normal -0.978148 4.61656e-17 -0.207912
    outer loop
      vertex 69.695 10 50.635
      vertex 69.695 0 50.635
      vertex 69.3492 10 52.2619
    endloop
  endfacet
  facet normal -0.978148 4.61656e-17 -0.207912
    outer loop
      vertex 69.3492 10 52.2619
      vertex 69.695 0 50.635
      vertex 69.3492 0 52.2619
    endloop
  endfacet
  facet normal -0.809017 1.30515e-16 -0.587786
    outer loop
      vertex 69.3492 10 52.2619
      vertex 69.3492 0 52.2619
      vertex 68.3715 10 53.6076
    endloop
  endfacet
  facet normal -0.809017 1.30515e-16 -0.587786
    outer loop
      vertex 68.3715 10 53.6076
      vertex 69.3492 0 52.2619
      vertex 68.3715 0 53.6076
    endloop
  endfacet
  facet normal -0.5 1.92296e-16 -0.866025
    outer loop
      vertex 68.3715 10 53.6076
      vertex 68.3715 0 53.6076
      vertex 66.9311 10 54.4392
    endloop
  endfacet
  facet normal -0.5 1.92296e-16 -0.866025
    outer loop
      vertex 66.9311 10 54.4392
      vertex 68.3715 0 53.6076
      vertex 66.9311 0 54.4392
    endloop
  endfacet
  facet normal -0.104529 2.20828e-16 -0.994522
    outer loop
      vertex 66.9311 10 54.4392
      vertex 66.9311 0 54.4392
      vertex 65.2769 10 54.6131
    endloop
  endfacet
  facet normal -0.104529 2.20828e-16 -0.994522
    outer loop
      vertex 65.2769 10 54.6131
      vertex 66.9311 0 54.4392
      vertex 65.2769 0 54.6131
    endloop
  endfacet
  facet normal 0.309017 2.11177e-16 -0.951057
    outer loop
      vertex 65.2769 10 54.6131
      vertex 65.2769 0 54.6131
      vertex 63.695 10 54.0991
    endloop
  endfacet
  facet normal 0.309017 2.11177e-16 -0.951057
    outer loop
      vertex 63.695 10 54.0991
      vertex 65.2769 0 54.6131
      vertex 63.695 0 54.0991
    endloop
  endfacet
  facet normal 0.669131 1.65011e-16 -0.743145
    outer loop
      vertex 63.695 10 54.0991
      vertex 63.695 0 54.0991
      vertex 62.4589 10 52.9861
    endloop
  endfacet
  facet normal 0.669131 1.65011e-16 -0.743145
    outer loop
      vertex 62.4589 10 52.9861
      vertex 63.695 0 54.0991
      vertex 62.4589 0 52.9861
    endloop
  endfacet
  facet normal 0.913546 9.03136e-17 -0.406736
    outer loop
      vertex 61.7824 10 51.4666
      vertex 62.4589 10 52.9861
      vertex 62.4589 0 52.9861
    endloop
  endfacet
  facet normal 0.913546 9.03136e-17 -0.406736
    outer loop
      vertex 61.7824 0 51.4666
      vertex 61.7824 10 51.4666
      vertex 62.4589 0 52.9861
    endloop
  endfacet
  facet normal 1 0 0
    outer loop
      vertex 6.72945 27.1831 0
      vertex 6.72945 27.1831 20
      vertex 6.72945 22.8169 20
    endloop
  endfacet
  facet normal 1 0 0
    outer loop
      vertex 6.72945 22.8169 0
      vertex 6.72945 27.1831 0
      vertex 6.72945 22.8169 20
    endloop
  endfacet
  facet normal 0.913545 -0.406737 0
    outer loop
      vertex 8.50532 31.1717 0
      vertex 8.50532 31.1717 20
      vertex 6.72945 27.1831 20
    endloop
  endfacet
  facet normal 0.913545 -0.406737 0
    outer loop
      vertex 6.72945 27.1831 0
      vertex 8.50532 31.1717 0
      vertex 6.72945 27.1831 20
    endloop
  endfacet
  facet normal 0.669131 -0.743145 0
    outer loop
      vertex 11.75 34.0933 0
      vertex 11.75 34.0933 20
      vertex 8.50532 31.1717 20
    endloop
  endfacet
  facet normal 0.669131 -0.743145 0
    outer loop
      vertex 8.50532 31.1717 0
      vertex 11.75 34.0933 0
      vertex 8.50532 31.1717 20
    endloop
  endfacet
  facet normal 0.309017 -0.951057 0
    outer loop
      vertex 15.9025 35.4425 0
      vertex 15.9025 35.4425 20
      vertex 11.75 34.0933 20
    endloop
  endfacet
  facet normal 0.309017 -0.951057 0
    outer loop
      vertex 11.75 34.0933 0
      vertex 15.9025 35.4425 0
      vertex 11.75 34.0933 20
    endloop
  endfacet
  facet normal -0.104529 -0.994522 0
    outer loop
      vertex 20.2447 34.9861 0
      vertex 20.2447 34.9861 20
      vertex 15.9025 35.4425 20
    endloop
  endfacet
  facet normal -0.104529 -0.994522 0
    outer loop
      vertex 15.9025 35.4425 0
      vertex 20.2447 34.9861 0
      vertex 15.9025 35.4425 20
    endloop
  endfacet
  facet normal -0.5 -0.866025 0
    outer loop
      vertex 24.0259 32.803 0
      vertex 24.0259 32.803 20
      vertex 20.2447 34.9861 20
    endloop
  endfacet
  facet normal -0.5 -0.866025 0
    outer loop
      vertex 20.2447 34.9861 0
      vertex 24.0259 32.803 0
      vertex 20.2447 34.9861 20
    endloop
  endfacet
  facet normal -0.809017 -0.587785 0
    outer loop
      vertex 26.5922 29.2707 20
      vertex 24.0259 32.803 20
      vertex 26.5922 29.2707 0
    endloop
  endfacet
  facet normal -0.809017 -0.587785 0
    outer loop
      vertex 26.5922 29.2707 0
      vertex 24.0259 32.803 20
      vertex 24.0259 32.803 0
    endloop
  endfacet
  facet normal -0.978148 -0.207912 0
    outer loop
      vertex 27.5 25 20
      vertex 26.5922 29.2707 20
      vertex 27.5 25 0
    endloop
  endfacet
  facet normal -0.978148 -0.207912 0
    outer loop
      vertex 27.5 25 0
      vertex 26.5922 29.2707 20
      vertex 26.5922 29.2707 0
    endloop
  endfacet
  facet normal -0.978148 0.207912 0
    outer loop
      vertex 27.5 25 20
      vertex 27.5 25 0
      vertex 26.5922 20.7293 20
    endloop
  endfacet
  facet normal -0.978148 0.207912 0
    outer loop
      vertex 26.5922 20.7293 20
      vertex 27.5 25 0
      vertex 26.5922 20.7293 0
    endloop
  endfacet
  facet normal -0.809017 0.587785 0
    outer loop
      vertex 26.5922 20.7293 20
      vertex 26.5922 20.7293 0
      vertex 24.0259 17.197 20
    endloop
  endfacet
  facet normal -0.809017 0.587785 0
    outer loop
      vertex 24.0259 17.197 20
      vertex 26.5922 20.7293 0
      vertex 24.0259 17.197 0
    endloop
  endfacet
  facet normal -0.5 0.866025 0
    outer loop
      vertex 24.0259 17.197 20
      vertex 24.0259 17.197 0
      vertex 20.2447 15.0139 20
    endloop
  endfacet
  facet normal -0.5 0.866025 0
    outer loop
      vertex 20.2447 15.0139 20
      vertex 24.0259 17.197 0
      vertex 20.2447 15.0139 0
    endloop
  endfacet
  facet normal -0.104529 0.994522 0
    outer loop
      vertex 20.2447 15.0139 20
      vertex 20.2447 15.0139 0
      vertex 15.9025 14.5575 20
    endloop
  endfacet
  facet normal -0.104529 0.994522 0
    outer loop
      vertex 15.9025 14.5575 20
      vertex 20.2447 15.0139 0
      vertex 15.9025 14.5575 0
    endloop
  endfacet
  facet normal 0.309017 0.951057 0
    outer loop
      vertex 15.9025 14.5575 20
      vertex 15.9025 14.5575 0
      vertex 11.75 15.9067 20
    endloop
  endfacet
  facet normal 0.309017 0.951057 0
    outer loop
      vertex 11.75 15.9067 20
      vertex 15.9025 14.5575 0
      vertex 11.75 15.9067 0
    endloop
  endfacet
  facet normal 0.669131 0.743145 0
    outer loop
      vertex 11.75 15.9067 20
      vertex 11.75 15.9067 0
      vertex 8.50532 18.8283 20
    endloop
  endfacet
  facet normal 0.669131 0.743145 0
    outer loop
      vertex 8.50532 18.8283 20
      vertex 11.75 15.9067 0
      vertex 8.50532 18.8283 0
    endloop
  endfacet
  facet normal 0.913545 0.406737 0
    outer loop
      vertex 6.72945 22.8169 20
      vertex 8.50532 18.8283 20
      vertex 8.50532 18.8283 0
    endloop
  endfacet
  facet normal 0.913545 0.406737 0
    outer loop
      vertex 6.72945 22.8169 0
      vertex 6.72945 22.8169 20
      vertex 8.50532 18.8283 0
    endloop
  endfacet
  facet normal 0.866025 -0.5 0
    outer loop
      vertex 73.65 33.2272 0
      vertex 73.65 33.2272 20
      vertex 68.9 25 20
    endloop
  endfacet
  facet normal 0.866025 -0.5 0
    outer loop
      vertex 68.9 25 0
      vertex 73.65 33.2272 0
      vertex 68.9 25 20
    endloop
  endfacet
  facet normal 0.866025 0.5 0
    outer loop
      vertex 68.9 25 20
      vertex 73.65 16.7728 20
      vertex 73.65 16.7728 0
    endloop
  endfacet
  facet normal 0.866025 0.5 0
    outer loop
      vertex 68.9 25 0
      vertex 68.9 25 20
      vertex 73.65 16.7728 0
    endloop
  endfacet
  facet normal 0 -1 0
    outer loop
      vertex 83.15 33.2272 0
      vertex 83.15 33.2272 20
      vertex 73.65 33.2272 20
    endloop
  endfacet
  facet normal 0 -1 0
    outer loop
      vertex 73.65 33.2272 0
      vertex 83.15 33.2272 0
      vertex 73.65 33.2272 20
    endloop
  endfacet
  facet normal -0.866025 -0.5 0
    outer loop
      vertex 87.9 25 20
      vertex 83.15 33.2272 20
      vertex 87.9 25 0
    endloop
  endfacet
  facet normal -0.866025 -0.5 0
    outer loop
      vertex 87.9 25 0
      vertex 83.15 33.2272 20
      vertex 83.15 33.2272 0
    endloop
  endfacet
  facet normal -0.866025 0.5 0
    outer loop
      vertex 87.9 25 20
      vertex 87.9 25 0
      vertex 83.15 16.7728 20
    endloop
  endfacet
  facet normal -0.866025 0.5 0
    outer loop
      vertex 83.15 16.7728 20
      vertex 87.9 25 0
      vertex 83.15 16.7728 0
    endloop
  endfacet
  facet normal 0 1 0
    outer loop
      vertex 83.15 16.7728 20
      vertex 83.15 16.7728 0
      vertex 73.65 16.7728 20
    endloop
  endfacet
  facet normal 0 1 0
    outer loop
      vertex 73.65 16.7728 20
      vertex 83.15 16.7728 0
      vertex 73.65 16.7728 0
    endloop
  endfacet
  facet normal 0.913545 0.406737 0
    outer loop
      vertex 6.72945 22.8169 80
      vertex 8.50532 18.8283 80
      vertex 8.50532 18.8283 60
    endloop
  endfacet
  facet normal 0.913545 0.406737 0
    outer loop
      vertex 6.72945 22.8169 60
      vertex 6.72945 22.8169 80
      vertex 8.50532 18.8283 60
    endloop
  endfacet
  facet normal 1 0 0
    outer loop
      vertex 6.72945 27.1831 60
      vertex 6.72945 27.1831 80
      vertex 6.72945 22.8169 80
    endloop
  endfacet
  facet normal 1 0 0
    outer loop
      vertex 6.72945 22.8169 60
      vertex 6.72945 27.1831 60
      vertex 6.72945 22.8169 80
    endloop
  endfacet
  facet normal 0.913545 -0.406737 0
    outer loop
      vertex 8.50532 31.1717 60
      vertex 8.50532 31.1717 80
      vertex 6.72945 27.1831 80
    endloop
  endfacet
  facet normal 0.913545 -0.406737 0
    outer loop
      vertex 6.72945 27.1831 60
      vertex 8.50532 31.1717 60
      vertex 6.72945 27.1831 80
    endloop
  endfacet
  facet normal 0.669131 -0.743145 0
    outer loop
      vertex 11.75 34.0933 60
      vertex 11.75 34.0933 80
      vertex 8.50532 31.1717 80
    endloop
  endfacet
  facet normal 0.669131 -0.743145 0
    outer loop
      vertex 8.50532 31.1717 60
      vertex 11.75 34.0933 60
      vertex 8.50532 31.1717 80
    endloop
  endfacet
  facet normal 0.309017 -0.951057 0
    outer loop
      vertex 15.9025 35.4425 60
      vertex 15.9025 35.4425 80
      vertex 11.75 34.0933 80
    endloop
  endfacet
  facet normal 0.309017 -0.951057 0
    outer loop
      vertex 11.75 34.0933 60
      vertex 15.9025 35.4425 60
      vertex 11.75 34.0933 80
    endloop
  endfacet
  facet normal -0.104529 -0.994522 0
    outer loop
      vertex 20.2447 34.9861 60
      vertex 20.2447 34.9861 80
      vertex 15.9025 35.4425 80
    endloop
  endfacet
  facet normal -0.104529 -0.994522 0
    outer loop
      vertex 15.9025 35.4425 60
      vertex 20.2447 34.9861 60
      vertex 15.9025 35.4425 80
    endloop
  endfacet
  facet normal -0.5 -0.866025 0
    outer loop
      vertex 24.0259 32.803 60
      vertex 24.0259 32.803 80
      vertex 20.2447 34.9861 80
    endloop
  endfacet
  facet normal -0.5 -0.866025 0
    outer loop
      vertex 20.2447 34.9861 60
      vertex 24.0259 32.803 60
      vertex 20.2447 34.9861 80
    endloop
  endfacet
  facet normal -0.809017 -0.587785 0
    outer loop
      vertex 26.5922 29.2707 80
      vertex 24.0259 32.803 80
      vertex 26.5922 29.2707 60
    endloop
  endfacet
  facet normal -0.809017 -0.587785 0
    outer loop
      vertex 26.5922 29.2707 60
      vertex 24.0259 32.803 80
      vertex 24.0259 32.803 60
    endloop
  endfacet
  facet normal -0.978148 -0.207912 0
    outer loop
      vertex 27.5 25 80
      vertex 26.5922 29.2707 80
      vertex 27.5 25 60
    endloop
  endfacet
  facet normal -0.978148 -0.207912 0
    outer loop
      vertex 27.5 25 60
      vertex 26.5922 29.2707 80
      vertex 26.5922 29.2707 60
    endloop
  endfacet
  facet normal -0.978148 0.207912 0
    outer loop
      vertex 27.5 25 80
      vertex 27.5 25 60
      vertex 26.5922 20.7293 80
    endloop
  endfacet
  facet normal -0.978148 0.207912 0
    outer loop
      vertex 26.5922 20.7293 80
      vertex 27.5 25 60
      vertex 26.5922 20.7293 60
    endloop
  endfacet
  facet normal -0.809017 0.587785 0
    outer loop
      vertex 26.5922 20.7293 80
      vertex 26.5922 20.7293 60
      vertex 24.0259 17.197 80
    endloop
  endfacet
  facet normal -0.809017 0.587785 0
    outer loop
      vertex 24.0259 17.197 80
      vertex 26.5922 20.7293 60
      vertex 24.0259 17.197 60
    endloop
  endfacet
  facet normal -0.5 0.866025 0
    outer loop
      vertex 24.0259 17.197 80
      vertex 24.0259 17.197 60
      vertex 20.2447 15.0139 80
    endloop
  endfacet
  facet normal -0.5 0.866025 0
    outer loop
      vertex 20.2447 15.0139 80
      vertex 24.0259 17.197 60
      vertex 20.2447 15.0139 60
    endloop
  endfacet
  facet normal -0.104529 0.994522 0
    outer loop
      vertex 20.2447 15.0139 80
      vertex 20.2447 15.0139 60
      vertex 15.9025 14.5575 80
    endloop
  endfacet
  facet normal -0.104529 0.994522 0
    outer loop
      vertex 15.9025 14.5575 80
      vertex 20.2447 15.0139 60
      vertex 15.9025 14.5575 60
    endloop
  endfacet
  facet normal 0.309017 0.951057 0
    outer loop
      vertex 15.9025 14.5575 80
      vertex 15.9025 14.5575 60
      vertex 11.75 15.9067 80
    endloop
  endfacet
  facet normal 0.309017 0.951057 0
    outer loop
      vertex 11.75 15.9067 80
      vertex 15.9025 14.5575 60
      vertex 11.75 15.9067 60
    endloop
  endfacet
  facet normal 0.669131 0.743145 0
    outer loop
      vertex 11.75 15.9067 80
      vertex 11.75 15.9067 60
      vertex 8.50532 18.8283 80
    endloop
  endfacet
  facet normal 0.669131 0.743145 0
    outer loop
      vertex 8.50532 18.8283 80
      vertex 11.75 15.9067 60
      vertex 8.50532 18.8283 60
    endloop
  endfacet
  facet normal 0 1 0
    outer loop
      vertex 83.15 16.7728 80
      vertex 83.15 16.7728 60
      vertex 73.65 16.7728 80
    endloop
  endfacet
  facet normal 0 1 0
    outer loop
      vertex 73.65 16.7728 80
      vertex 83.15 16.7728 60
      vertex 73.65 16.7728 60
    endloop
  endfacet
  facet normal 0.866025 0.5 0
    outer loop
      vertex 68.9 25 80
      vertex 73.65 16.7728 80
      vertex 73.65 16.7728 60
    endloop
  endfacet
  facet normal 0.866025 0.5 0
    outer loop
      vertex 68.9 25 60
      vertex 68.9 25 80
      vertex 73.65 16.7728 60
    endloop
  endfacet
  facet normal 0.866025 -0.5 0
    outer loop
      vertex 73.65 33.2272 60
      vertex 73.65 33.2272 80
      vertex 68.9 25 80
    endloop
  endfacet
  facet normal 0.866025 -0.5 0
    outer loop
      vertex 68.9 25 60
      vertex 73.65 33.2272 60
      vertex 68.9 25 80
    endloop
  endfacet
  facet normal 0 -1 0
    outer loop
      vertex 83.15 33.2272 60
      vertex 83.15 33.2272 80
      vertex 73.65 33.2272 80
    endloop
  endfacet
  facet normal 0 -1 0
    outer loop
      vertex 73.65 33.2272 60
      vertex 83.15 33.2272 60
      vertex 73.65 33.2272 80
    endloop
  endfacet
  facet normal -0.866025 -0.5 0
    outer loop
      vertex 87.9 25 80
      vertex 83.15 33.2272 80
      vertex 87.9 25 60
    endloop
  endfacet
  facet normal -0.866025 -0.5 0
    outer loop
      vertex 87.9 25 60
      vertex 83.15 33.2272 80
      vertex 83.15 33.2272 60
    endloop
  endfacet
  facet normal -0.866025 0.5 0
    outer loop
      vertex 87.9 25 80
      vertex 87.9 25 60
      vertex 83.15 16.7728 80
    endloop
  endfacet
  facet normal -0.866025 0.5 0
    outer loop
      vertex 83.15 16.7728 80
      vertex 87.9 25 60
      vertex 83.15 16.7728 60
    endloop
  endfacet
endsolid OpenSCAD_Model
